<svg xmlns="http://www.w3.org/2000/svg" xmlns:xlink="http://www.w3.org/1999/xlink" width="500" zoomAndPan="magnify" viewBox="0 0 375 374.999991" height="500" preserveAspectRatio="xMidYMid meet" version="1.0"><defs><g/><clipPath id="7d9b02367b"><path d="M 156 143 L 165 143 L 165 152 L 156 152 Z M 156 143 " clip-rule="nonzero"/></clipPath><clipPath id="868d678b2b"><path d="M 132.875 141.089844 L 180.800781 143.777344 L 178.242188 189.453125 L 130.316406 186.769531 Z M 132.875 141.089844 " clip-rule="nonzero"/></clipPath><clipPath id="4bc9c64639"><path d="M 132.875 141.089844 L 180.800781 143.777344 L 178.242188 189.453125 L 130.316406 186.769531 Z M 132.875 141.089844 " clip-rule="nonzero"/></clipPath><clipPath id="4df6c707d2"><path d="M 156 143 L 165 143 L 165 153 L 156 153 Z M 156 143 " clip-rule="nonzero"/></clipPath><clipPath id="7d75a0f261"><path d="M 132.875 141.089844 L 180.800781 143.777344 L 178.242188 189.453125 L 130.316406 186.769531 Z M 132.875 141.089844 " clip-rule="nonzero"/></clipPath><clipPath id="b40efad445"><path d="M 132.875 141.089844 L 180.800781 143.777344 L 178.242188 189.453125 L 130.316406 186.769531 Z M 132.875 141.089844 " clip-rule="nonzero"/></clipPath><clipPath id="6170cd0f2d"><path d="M 159 146 L 162 146 L 162 149 L 159 149 Z M 159 146 " clip-rule="nonzero"/></clipPath><clipPath id="2fa8c2e672"><path d="M 132.875 141.089844 L 180.800781 143.777344 L 178.242188 189.453125 L 130.316406 186.769531 Z M 132.875 141.089844 " clip-rule="nonzero"/></clipPath><clipPath id="012942585b"><path d="M 132.875 141.089844 L 180.800781 143.777344 L 178.242188 189.453125 L 130.316406 186.769531 Z M 132.875 141.089844 " clip-rule="nonzero"/></clipPath><clipPath id="1a78f75082"><path d="M 158 146 L 162 146 L 162 149 L 158 149 Z M 158 146 " clip-rule="nonzero"/></clipPath><clipPath id="4ef4ffef70"><path d="M 132.875 141.089844 L 180.800781 143.777344 L 178.242188 189.453125 L 130.316406 186.769531 Z M 132.875 141.089844 " clip-rule="nonzero"/></clipPath><clipPath id="8cc99b2866"><path d="M 132.875 141.089844 L 180.800781 143.777344 L 178.242188 189.453125 L 130.316406 186.769531 Z M 132.875 141.089844 " clip-rule="nonzero"/></clipPath><clipPath id="c6fab756ab"><path d="M 148 156 L 179 156 L 179 188 L 148 188 Z M 148 156 " clip-rule="nonzero"/></clipPath><clipPath id="d89eba105e"><path d="M 132.875 141.089844 L 180.800781 143.777344 L 178.242188 189.453125 L 130.316406 186.769531 Z M 132.875 141.089844 " clip-rule="nonzero"/></clipPath><clipPath id="5df23aaa00"><path d="M 132.875 141.089844 L 180.800781 143.777344 L 178.242188 189.453125 L 130.316406 186.769531 Z M 132.875 141.089844 " clip-rule="nonzero"/></clipPath><clipPath id="9d9bb490f1"><path d="M 148 156 L 180 156 L 180 188 L 148 188 Z M 148 156 " clip-rule="nonzero"/></clipPath><clipPath id="4cd81cab5e"><path d="M 132.875 141.089844 L 180.800781 143.777344 L 178.242188 189.453125 L 130.316406 186.769531 Z M 132.875 141.089844 " clip-rule="nonzero"/></clipPath><clipPath id="81158f74f6"><path d="M 132.875 141.089844 L 180.800781 143.777344 L 178.242188 189.453125 L 130.316406 186.769531 Z M 132.875 141.089844 " clip-rule="nonzero"/></clipPath><clipPath id="00b8b6caff"><path d="M 132 160 L 147 160 L 147 182 L 132 182 Z M 132 160 " clip-rule="nonzero"/></clipPath><clipPath id="ff6edbdcaa"><path d="M 132.875 141.089844 L 180.800781 143.777344 L 178.242188 189.453125 L 130.316406 186.769531 Z M 132.875 141.089844 " clip-rule="nonzero"/></clipPath><clipPath id="f0e4a25bb5"><path d="M 132.875 141.089844 L 180.800781 143.777344 L 178.242188 189.453125 L 130.316406 186.769531 Z M 132.875 141.089844 " clip-rule="nonzero"/></clipPath><clipPath id="470b843846"><path d="M 135 145 L 166 145 L 166 175 L 135 175 Z M 135 145 " clip-rule="nonzero"/></clipPath><clipPath id="643f3af45d"><path d="M 132.875 141.089844 L 180.800781 143.777344 L 178.242188 189.453125 L 130.316406 186.769531 Z M 132.875 141.089844 " clip-rule="nonzero"/></clipPath><clipPath id="792f397b74"><path d="M 132.875 141.089844 L 180.800781 143.777344 L 178.242188 189.453125 L 130.316406 186.769531 Z M 132.875 141.089844 " clip-rule="nonzero"/></clipPath><clipPath id="2083247a25"><path d="M 134 145 L 167 145 L 167 175 L 134 175 Z M 134 145 " clip-rule="nonzero"/></clipPath><clipPath id="4b4072c015"><path d="M 132.875 141.089844 L 180.800781 143.777344 L 178.242188 189.453125 L 130.316406 186.769531 Z M 132.875 141.089844 " clip-rule="nonzero"/></clipPath><clipPath id="621257cf0a"><path d="M 132.875 141.089844 L 180.800781 143.777344 L 178.242188 189.453125 L 130.316406 186.769531 Z M 132.875 141.089844 " clip-rule="nonzero"/></clipPath><clipPath id="c936f16d3d"><path d="M 146 167 L 149 167 L 149 169 L 146 169 Z M 146 167 " clip-rule="nonzero"/></clipPath><clipPath id="768b89d7ce"><path d="M 132.875 141.089844 L 180.800781 143.777344 L 178.242188 189.453125 L 130.316406 186.769531 Z M 132.875 141.089844 " clip-rule="nonzero"/></clipPath><clipPath id="816148c3f3"><path d="M 132.875 141.089844 L 180.800781 143.777344 L 178.242188 189.453125 L 130.316406 186.769531 Z M 132.875 141.089844 " clip-rule="nonzero"/></clipPath><clipPath id="45bd73691e"><path d="M 146 167 L 150 167 L 150 170 L 146 170 Z M 146 167 " clip-rule="nonzero"/></clipPath><clipPath id="1a1e6ad697"><path d="M 132.875 141.089844 L 180.800781 143.777344 L 178.242188 189.453125 L 130.316406 186.769531 Z M 132.875 141.089844 " clip-rule="nonzero"/></clipPath><clipPath id="56ffbd223e"><path d="M 132.875 141.089844 L 180.800781 143.777344 L 178.242188 189.453125 L 130.316406 186.769531 Z M 132.875 141.089844 " clip-rule="nonzero"/></clipPath><clipPath id="9094b4ebb2"><path d="M 147 168 L 151 168 L 151 172 L 147 172 Z M 147 168 " clip-rule="nonzero"/></clipPath><clipPath id="a80cc6db84"><path d="M 132.875 141.089844 L 180.800781 143.777344 L 178.242188 189.453125 L 130.316406 186.769531 Z M 132.875 141.089844 " clip-rule="nonzero"/></clipPath><clipPath id="c392ec073a"><path d="M 132.875 141.089844 L 180.800781 143.777344 L 178.242188 189.453125 L 130.316406 186.769531 Z M 132.875 141.089844 " clip-rule="nonzero"/></clipPath><clipPath id="e47d1c6bee"><path d="M 148 159 L 151 159 L 151 163 L 148 163 Z M 148 159 " clip-rule="nonzero"/></clipPath><clipPath id="0ddb63261a"><path d="M 132.875 141.089844 L 180.800781 143.777344 L 178.242188 189.453125 L 130.316406 186.769531 Z M 132.875 141.089844 " clip-rule="nonzero"/></clipPath><clipPath id="140c8eaac0"><path d="M 132.875 141.089844 L 180.800781 143.777344 L 178.242188 189.453125 L 130.316406 186.769531 Z M 132.875 141.089844 " clip-rule="nonzero"/></clipPath><clipPath id="3c7b356286"><path d="M 161 160 L 165 160 L 165 164 L 161 164 Z M 161 160 " clip-rule="nonzero"/></clipPath><clipPath id="50e4616a8b"><path d="M 132.875 141.089844 L 180.800781 143.777344 L 178.242188 189.453125 L 130.316406 186.769531 Z M 132.875 141.089844 " clip-rule="nonzero"/></clipPath><clipPath id="f78dcf8e57"><path d="M 132.875 141.089844 L 180.800781 143.777344 L 178.242188 189.453125 L 130.316406 186.769531 Z M 132.875 141.089844 " clip-rule="nonzero"/></clipPath><clipPath id="bf3fdaeae0"><path d="M 137 142 L 146 142 L 146 151 L 137 151 Z M 137 142 " clip-rule="nonzero"/></clipPath><clipPath id="a2d89f65cc"><path d="M 132.875 141.089844 L 180.800781 143.777344 L 178.242188 189.453125 L 130.316406 186.769531 Z M 132.875 141.089844 " clip-rule="nonzero"/></clipPath><clipPath id="87f18c2b74"><path d="M 132.875 141.089844 L 180.800781 143.777344 L 178.242188 189.453125 L 130.316406 186.769531 Z M 132.875 141.089844 " clip-rule="nonzero"/></clipPath><clipPath id="2d1057ad1a"><path d="M 140 145 L 143 145 L 143 148 L 140 148 Z M 140 145 " clip-rule="nonzero"/></clipPath><clipPath id="e0b66e2108"><path d="M 132.875 141.089844 L 180.800781 143.777344 L 178.242188 189.453125 L 130.316406 186.769531 Z M 132.875 141.089844 " clip-rule="nonzero"/></clipPath><clipPath id="88a50c6b0c"><path d="M 132.875 141.089844 L 180.800781 143.777344 L 178.242188 189.453125 L 130.316406 186.769531 Z M 132.875 141.089844 " clip-rule="nonzero"/></clipPath><clipPath id="f6485b16b7"><path d="M 140 145 L 143 145 L 143 149 L 140 149 Z M 140 145 " clip-rule="nonzero"/></clipPath><clipPath id="ec95547640"><path d="M 132.875 141.089844 L 180.800781 143.777344 L 178.242188 189.453125 L 130.316406 186.769531 Z M 132.875 141.089844 " clip-rule="nonzero"/></clipPath><clipPath id="e3528b2b5d"><path d="M 132.875 141.089844 L 180.800781 143.777344 L 178.242188 189.453125 L 130.316406 186.769531 Z M 132.875 141.089844 " clip-rule="nonzero"/></clipPath><clipPath id="fbacefb068"><path d="M 158 162 L 164 162 L 164 166 L 158 166 Z M 158 162 " clip-rule="nonzero"/></clipPath><clipPath id="87fb27cfd9"><path d="M 132.875 141.089844 L 180.800781 143.777344 L 178.242188 189.453125 L 130.316406 186.769531 Z M 132.875 141.089844 " clip-rule="nonzero"/></clipPath><clipPath id="835f2c3408"><path d="M 132.875 141.089844 L 180.800781 143.777344 L 178.242188 189.453125 L 130.316406 186.769531 Z M 132.875 141.089844 " clip-rule="nonzero"/></clipPath><clipPath id="8893d29119"><path d="M 160 165 L 162 165 L 162 172 L 160 172 Z M 160 165 " clip-rule="nonzero"/></clipPath><clipPath id="56ba0685e9"><path d="M 132.875 141.089844 L 180.800781 143.777344 L 178.242188 189.453125 L 130.316406 186.769531 Z M 132.875 141.089844 " clip-rule="nonzero"/></clipPath><clipPath id="d74ff06482"><path d="M 132.875 141.089844 L 180.800781 143.777344 L 178.242188 189.453125 L 130.316406 186.769531 Z M 132.875 141.089844 " clip-rule="nonzero"/></clipPath><clipPath id="680ddee636"><path d="M 170 173 L 172 173 L 172 177 L 170 177 Z M 170 173 " clip-rule="nonzero"/></clipPath><clipPath id="16f233cafa"><path d="M 132.875 141.089844 L 180.800781 143.777344 L 178.242188 189.453125 L 130.316406 186.769531 Z M 132.875 141.089844 " clip-rule="nonzero"/></clipPath><clipPath id="c3459dc78c"><path d="M 132.875 141.089844 L 180.800781 143.777344 L 178.242188 189.453125 L 130.316406 186.769531 Z M 132.875 141.089844 " clip-rule="nonzero"/></clipPath><clipPath id="d200196c89"><path d="M 229.0625 165.179688 L 240.3125 165.179688 L 240.3125 176.429688 L 229.0625 176.429688 Z M 229.0625 165.179688 " clip-rule="nonzero"/></clipPath><clipPath id="ef2193a6c6"><path d="M 227.628906 161.964844 L 241.128906 161.964844 L 241.128906 173.964844 L 227.628906 173.964844 Z M 227.628906 161.964844 " clip-rule="nonzero"/></clipPath></defs><g fill="#231f20" fill-opacity="1"><g transform="translate(105.95862, 200.226872)"><g><path d="M 1.691406 0 L 9.867188 -0.046875 C 10.292969 -0.046875 10.714844 -0.234375 11.042969 -0.609375 C 11.371094 -0.941406 11.5625 -1.410156 11.515625 -1.925781 L 11.277344 -10.105469 L 16.308594 -10.386719 C 16.636719 -10.433594 16.964844 -10.574219 17.246094 -10.808594 C 17.527344 -11.042969 17.671875 -11.277344 17.671875 -11.609375 L 17.859375 -16.777344 C 17.859375 -17.152344 17.71875 -17.480469 17.480469 -17.71875 C 17.199219 -17.953125 16.871094 -18.046875 16.496094 -18.046875 L 11.042969 -18.09375 L 10.902344 -22.699219 L 19.785156 -23.121094 C 20.253906 -23.167969 20.679688 -23.308594 21.054688 -23.636719 C 21.429688 -23.96875 21.617188 -24.296875 21.617188 -24.71875 L 21.617188 -31.441406 C 21.617188 -31.910156 21.429688 -32.285156 21.101562 -32.613281 C 20.726562 -32.945312 20.300781 -33.085938 19.785156 -33.085938 L 8.363281 -33.039062 L 1.597656 -33.085938 C 1.175781 -33.085938 0.847656 -32.898438 0.515625 -32.519531 C 0.1875 -32.144531 0 -31.722656 0 -31.25 L 0.09375 -1.832031 C 0.09375 -1.316406 0.234375 -0.847656 0.5625 -0.515625 C 0.894531 -0.1875 1.269531 0 1.691406 0 Z M 1.691406 0 "/></g></g></g><g fill="#231f20" fill-opacity="1"><g transform="translate(129.454678, 200.226872)"><g><path d="M 8.648438 0.234375 C 11.84375 1.035156 16.917969 0.800781 19.925781 -0.847656 C 24.296875 -3.289062 25.660156 -7.097656 25.660156 -11.464844 C 25.378906 -17.152344 24.296875 -21.382812 19.925781 -23.828125 C 16.917969 -25.472656 11.84375 -25.753906 8.648438 -24.859375 C 2.351562 -23.121094 0.28125 -18.1875 0 -11.183594 C 0.28125 -4.183594 2.304688 -1.457031 8.648438 0.234375 Z M 10.058594 -11.984375 C 10.011719 -19.832031 15.695312 -19.222656 15.695312 -11.703125 C 15.414062 -5.875 10.152344 -6.0625 10.058594 -11.984375 Z M 10.058594 -11.984375 "/></g></g></g><g fill="#231f20" fill-opacity="1"><g transform="translate(156.992056, 200.226872)"><g><path d="M 8.648438 0.234375 C 11.84375 1.035156 16.917969 0.800781 19.925781 -0.847656 C 24.296875 -3.289062 25.660156 -7.097656 25.660156 -11.464844 C 25.378906 -17.152344 24.296875 -21.382812 19.925781 -23.828125 C 16.917969 -25.472656 11.84375 -25.753906 8.648438 -24.859375 C 2.351562 -23.121094 0.28125 -18.1875 0 -11.183594 C 0.28125 -4.183594 2.304688 -1.457031 8.648438 0.234375 Z M 10.058594 -11.984375 C 10.011719 -19.832031 15.695312 -19.222656 15.695312 -11.703125 C 15.414062 -5.875 10.152344 -6.0625 10.058594 -11.984375 Z M 10.058594 -11.984375 "/></g></g></g><g fill="#231f20" fill-opacity="1"><g transform="translate(184.529435, 200.226872)"><g><path d="M 4.746094 0.328125 L 11.796875 0.28125 C 12.125 0.28125 12.453125 0.09375 12.78125 -0.28125 C 13.113281 -0.65625 13.253906 -1.128906 13.207031 -1.644531 L 12.96875 -17.71875 L 14.757812 -17.765625 C 16.074219 -17.8125 16.167969 -18.375 16.167969 -19.128906 L 16.074219 -23.875 C 16.074219 -24.625 15.789062 -25.285156 14.332031 -25.285156 L 12.875 -25.285156 L 12.78125 -31.675781 C 12.78125 -32.191406 12.640625 -32.613281 12.359375 -32.992188 C 12.078125 -33.367188 11.75 -33.554688 11.324219 -33.554688 L 4.699219 -33.554688 C 4.324219 -33.554688 3.996094 -33.367188 3.710938 -32.992188 C 3.429688 -32.566406 3.289062 -32.144531 3.289062 -31.675781 L 3.289062 -25.140625 L 1.644531 -25.140625 C 0.515625 -25.140625 0 -24.484375 0 -23.636719 L 0 -18.84375 C 0 -18.09375 0.328125 -17.480469 1.644531 -17.527344 L 3.335938 -17.574219 L 3.382812 -1.550781 C 3.382812 -0.988281 3.523438 -0.515625 3.804688 -0.1875 C 4.042969 0.140625 4.371094 0.328125 4.746094 0.328125 Z M 4.746094 0.328125 "/></g></g></g><g fill="#231f20" fill-opacity="1"><g transform="translate(202.574409, 200.226872)"><g><path d="M 16.214844 0.421875 L 23.167969 0.421875 C 23.542969 0.421875 23.875 0.234375 24.203125 -0.140625 C 24.484375 -0.46875 24.625 -0.894531 24.625 -1.410156 L 24.671875 -10.574219 C 24.625 -18.375 24.71875 -21.382812 20.160156 -24.0625 C 17.71875 -25.472656 13.957031 -25.988281 9.445312 -25.1875 L 9.257812 -31.109375 C 9.257812 -31.628906 9.117188 -32.050781 8.789062 -32.425781 C 8.460938 -32.753906 8.082031 -32.945312 7.613281 -32.945312 L 1.597656 -32.992188 C 1.175781 -32.992188 0.847656 -32.800781 0.515625 -32.425781 C 0.1875 -32.050781 0 -31.628906 0 -31.15625 L 0.09375 -1.738281 C 0.09375 -1.222656 0.234375 -0.75 0.5625 -0.421875 C 0.894531 -0.09375 1.269531 0.09375 1.691406 0.09375 L 8.460938 0.046875 C 8.882812 0.046875 9.304688 -0.140625 9.632812 -0.515625 C 9.964844 -0.847656 10.152344 -1.316406 10.105469 -1.832031 L 9.726562 -14.898438 L 9.726562 -15.179688 C 9.726562 -16.167969 10.527344 -17.339844 11.417969 -17.765625 C 13.722656 -18.5625 14.710938 -16.308594 14.898438 -13.066406 L 14.804688 -1.410156 C 14.804688 -0.941406 14.945312 -0.515625 15.226562 -0.140625 C 15.507812 0.234375 15.835938 0.421875 16.214844 0.421875 Z M 16.214844 0.421875 "/></g></g></g><g fill="#231f20" fill-opacity="1"><g transform="translate(229.124951, 200.226872)"><g><path d="M 1.785156 0.328125 L 8.316406 0.28125 C 9.070312 0.28125 10.152344 -0.28125 10.058594 -1.175781 L 9.539062 -24.53125 C 9.539062 -25.378906 8.742188 -25.988281 7.800781 -25.988281 L 1.691406 -25.988281 C 0.800781 -25.988281 0 -25.285156 0 -24.53125 L 0.09375 -1.128906 C 0.09375 -0.234375 0.847656 0.328125 1.785156 0.328125 Z M 0.65625 -30.3125 C 1.597656 -28.289062 4.371094 -27.164062 6.859375 -28.101562 C 8.410156 -28.621094 9.632812 -30.078125 9.632812 -31.910156 C 9.632812 -34.304688 7.472656 -36.046875 5.027344 -36.046875 C 1.925781 -36.046875 -0.5625 -33.367188 0.65625 -30.3125 Z M 0.65625 -30.3125 "/></g></g></g><g fill="#231f20" fill-opacity="1"><g transform="translate(241.060955, 200.226872)"><g><path d="M 8.835938 0.421875 C 9.773438 0.421875 10.714844 -0.375 10.667969 -1.457031 L 10.105469 -31.109375 C 10.105469 -32.097656 9.257812 -32.945312 8.269531 -32.945312 L 1.785156 -32.945312 C 0.847656 -32.945312 0 -32.050781 0 -31.109375 L 0.09375 -1.363281 C 0.09375 -0.28125 0.894531 0.46875 1.878906 0.46875 Z M 8.835938 0.421875 "/></g></g></g><g fill="#231f20" fill-opacity="1"><g transform="translate(253.607856, 200.226872)"><g><path d="M 8.835938 0.421875 C 9.773438 0.421875 10.714844 -0.375 10.667969 -1.457031 L 10.105469 -31.109375 C 10.105469 -32.097656 9.257812 -32.945312 8.269531 -32.945312 L 1.785156 -32.945312 C 0.847656 -32.945312 0 -32.050781 0 -31.109375 L 0.09375 -1.363281 C 0.09375 -0.28125 0.894531 0.46875 1.878906 0.46875 Z M 8.835938 0.421875 "/></g></g></g><g fill="#231f20" fill-opacity="1"><g transform="translate(266.154757, 200.226872)"><g><path d="M 1.269531 0.703125 C 8.601562 1.082031 14.472656 1.082031 17.199219 -0.988281 C 18.515625 -2.019531 19.175781 -3.476562 19.550781 -4.980469 C 20.488281 -8.460938 19.078125 -11.515625 15.601562 -13.160156 C 14.332031 -13.722656 12.96875 -14.191406 12.078125 -14.664062 C 10.574219 -15.367188 10.902344 -16.636719 12.078125 -17.105469 C 13.113281 -17.574219 15.742188 -17.246094 17.433594 -17.246094 C 18.421875 -17.246094 18.984375 -17.765625 18.984375 -18.609375 C 19.03125 -23.683594 19.128906 -24.390625 18.703125 -24.90625 C 18 -25.660156 12.265625 -25.707031 10.621094 -25.660156 C 7.988281 -25.566406 4.652344 -25.332031 2.679688 -23.734375 C 0.609375 -22.085938 0 -19.972656 0 -17.339844 C 0 -13.863281 2.019531 -12.171875 6.71875 -10.433594 C 9.164062 -9.492188 9.070312 -7.660156 6.625 -7.519531 C 4.652344 -7.425781 0.28125 -8.222656 0.28125 -6.390625 L 0.28125 -0.988281 C 0.28125 -0.140625 0.46875 0.515625 1.269531 0.703125 Z M 1.269531 0.703125 "/></g></g></g><g clip-path="url(#7d9b02367b)"><g clip-path="url(#868d678b2b)"><g clip-path="url(#4bc9c64639)"><path fill="#fdfdfd" d="M 156.480469 148.03125 C 156.480469 148.03125 156.875 146.5625 157.777344 145.480469 C 158.988281 144.054688 160.972656 143.011719 162.871094 144.371094 C 165.277344 146.117188 164.390625 148.59375 163.097656 150.183594 C 162.246094 151.21875 161.085938 151.777344 161.085938 151.777344 Z M 156.480469 148.03125 " fill-opacity="1" fill-rule="nonzero"/></g></g></g><g clip-path="url(#4df6c707d2)"><g clip-path="url(#7d75a0f261)"><g clip-path="url(#b40efad445)"><path fill="#231f20" d="M 161.066406 152.066406 C 161.117188 152.070312 161.164062 152.070312 161.214844 152.050781 C 161.261719 152.027344 162.449219 151.445312 163.328125 150.363281 C 164.3125 149.144531 164.796875 147.773438 164.644531 146.636719 C 164.507812 145.664062 163.976562 144.839844 163.050781 144.164062 C 160.992188 142.675781 158.832031 143.855469 157.59375 145.324219 C 156.640625 146.453125 156.246094 147.921875 156.242188 147.992188 C 156.210938 148.136719 156.296875 148.285156 156.441406 148.339844 C 156.582031 148.375 156.730469 148.285156 156.789062 148.144531 C 156.789062 148.121094 157.179688 146.722656 158.03125 145.6875 C 159.164062 144.355469 161.003906 143.351562 162.734375 144.625 C 163.546875 145.203125 164.011719 145.925781 164.109375 146.726562 C 164.246094 147.742188 163.816406 148.945312 162.914062 150.050781 C 162.113281 151.042969 161 151.582031 160.976562 151.578125 C 160.828125 151.644531 160.769531 151.808594 160.832031 151.957031 C 160.878906 152.007812 160.972656 152.058594 161.066406 152.066406 Z M 161.066406 152.066406 " fill-opacity="1" fill-rule="nonzero"/></g></g></g><g clip-path="url(#6170cd0f2d)"><g clip-path="url(#2fa8c2e672)"><g clip-path="url(#012942585b)"><path fill="#fdfdfd" d="M 161.160156 146.585938 C 161.160156 146.585938 159.84375 147.257812 159.28125 148.71875 Z M 161.160156 146.585938 " fill-opacity="1" fill-rule="nonzero"/></g></g></g><g clip-path="url(#1a78f75082)"><g clip-path="url(#4ef4ffef70)"><g clip-path="url(#8cc99b2866)"><path fill="#231f20" d="M 159.265625 148.980469 C 159.386719 148.988281 159.488281 148.921875 159.542969 148.804688 C 160.050781 147.460938 161.265625 146.808594 161.265625 146.808594 C 161.414062 146.742188 161.449219 146.578125 161.382812 146.429688 C 161.320312 146.304688 161.152344 146.246094 161.003906 146.3125 C 160.957031 146.332031 159.59375 147.050781 159 148.605469 C 158.945312 148.746094 159.007812 148.894531 159.171875 148.953125 C 159.21875 148.976562 159.242188 148.980469 159.265625 148.980469 Z M 159.265625 148.980469 " fill-opacity="1" fill-rule="nonzero"/></g></g></g><g clip-path="url(#c6fab756ab)"><g clip-path="url(#d89eba105e)"><g clip-path="url(#5df23aaa00)"><path fill="#fdfdfd" d="M 178.832031 177.320312 C 178.832031 177.320312 177.625 168.371094 174.292969 165.175781 C 170.957031 162.003906 153.855469 156.257812 153.855469 156.257812 L 159.785156 172.402344 C 159.785156 172.402344 152.164062 175.246094 150.683594 178.460938 C 148.960938 182.144531 148.417969 182.835938 148.3125 184.753906 C 148.3125 184.753906 148.746094 187.328125 150.519531 187.429688 C 152.296875 187.527344 154.246094 187.515625 155.996094 185.929688 C 156.730469 185.25 157.640625 183.59375 157.640625 183.59375 L 162.589844 182.472656 C 162.589844 182.472656 167.21875 181.867188 169.417969 178.714844 C 169.992188 177.90625 170.21875 176.859375 170.21875 176.859375 Z M 178.832031 177.320312 " fill-opacity="1" fill-rule="nonzero"/></g></g></g><g clip-path="url(#9d9bb490f1)"><g clip-path="url(#4cd81cab5e)"><g clip-path="url(#81158f74f6)"><path fill="#231f20" d="M 150.480469 187.691406 C 148.515625 187.582031 148.039062 184.90625 148.019531 184.785156 C 148.113281 183.152344 148.46875 182.378906 149.472656 180.320312 C 149.746094 179.757812 150.046875 179.125 150.429688 178.328125 C 151.820312 175.347656 158.054688 172.761719 159.433594 172.238281 L 153.582031 156.363281 C 153.542969 156.265625 153.570312 156.144531 153.648438 156.078125 C 153.722656 156.011719 153.820312 155.992188 153.941406 156 C 154.648438 156.230469 171.160156 161.800781 174.496094 164.972656 C 177.855469 168.167969 179.074219 176.898438 179.101562 177.261719 C 179.121094 177.335938 179.089844 177.429688 179.042969 177.476562 C 178.988281 177.542969 178.914062 177.5625 178.820312 177.558594 L 170.398438 177.085938 C 170.308594 177.441406 170.046875 178.199219 169.605469 178.824219 C 167.355469 182.042969 162.792969 182.675781 162.601562 182.691406 L 157.800781 183.769531 C 157.585938 184.167969 156.8125 185.472656 156.152344 186.082031 C 154.375 187.765625 152.375 187.796875 150.480469 187.691406 Z M 148.574219 184.769531 C 148.574219 184.769531 149 187.078125 150.511719 187.164062 C 152.359375 187.265625 154.164062 187.222656 155.765625 185.726562 C 156.449219 185.089844 157.359375 183.457031 157.359375 183.457031 C 157.386719 183.386719 157.460938 183.339844 157.535156 183.320312 L 162.484375 182.203125 C 162.558594 182.183594 167.042969 181.566406 169.136719 178.554688 C 169.660156 177.792969 169.886719 176.792969 169.886719 176.792969 C 169.917969 176.652344 170.042969 176.5625 170.164062 176.570312 L 178.464844 177.035156 C 178.21875 175.40625 176.917969 168.113281 174.0625 165.402344 C 171.136719 162.617188 157.210938 157.746094 154.261719 156.738281 L 160.003906 172.339844 C 160.042969 172.488281 159.988281 172.652344 159.839844 172.691406 C 159.765625 172.714844 152.316406 175.542969 150.894531 178.59375 C 150.539062 179.367188 150.210938 180.023438 149.941406 180.585938 C 148.984375 182.601562 148.65625 183.304688 148.574219 184.769531 Z M 148.574219 184.769531 " fill-opacity="1" fill-rule="nonzero"/></g></g></g><g clip-path="url(#00b8b6caff)"><g clip-path="url(#ff6edbdcaa)"><g clip-path="url(#f0e4a25bb5)"><path fill="#fdfdfd" d="M 146.117188 176.230469 L 141.847656 172.550781 L 138.414062 160.351562 C 138.414062 160.351562 134.429688 164.484375 133.035156 169.628906 C 131.617188 174.769531 133.199219 177.457031 135.390625 178.253906 C 137.5625 179.050781 139.683594 178.976562 139.683594 178.976562 C 139.683594 178.976562 141.675781 182.070312 144.273438 181.230469 C 146.480469 180.511719 147.359375 178.105469 146.117188 176.230469 Z M 146.117188 176.230469 " fill-opacity="1" fill-rule="nonzero"/><path fill="#231f20" d="M 143.167969 181.648438 C 141.296875 181.546875 139.902344 179.757812 139.546875 179.257812 C 139.015625 179.25 137.191406 179.222656 135.28125 178.511719 C 134.21875 178.117188 130.902344 176.316406 132.75 169.539062 C 134.144531 164.417969 138.160156 160.214844 138.210938 160.171875 C 138.285156 160.101562 138.382812 160.058594 138.480469 160.089844 C 138.574219 160.117188 138.640625 160.195312 138.683594 160.292969 L 142.097656 172.398438 L 146.296875 176.027344 C 146.320312 176.050781 146.34375 176.050781 146.34375 176.078125 C 146.964844 177.027344 147.117188 178.164062 146.746094 179.203125 C 146.371094 180.289062 145.484375 181.105469 144.332031 181.5 C 143.9375 181.621094 143.550781 181.671875 143.167969 181.648438 Z M 139.699219 178.6875 C 139.792969 178.695312 139.863281 178.746094 139.90625 178.820312 C 139.929688 178.84375 141.816406 181.71875 144.167969 180.960938 C 145.148438 180.628906 145.910156 179.925781 146.226562 179.003906 C 146.515625 178.15625 146.398438 177.210938 145.890625 176.410156 L 141.667969 172.757812 C 141.621094 172.730469 141.597656 172.683594 141.578125 172.632812 L 138.265625 160.894531 C 137.289062 161.996094 134.394531 165.539062 133.273438 169.6875 C 132.117188 173.957031 132.929688 177.058594 135.476562 177.996094 C 137.578125 178.761719 139.652344 178.683594 139.675781 178.6875 C 139.675781 178.6875 139.699219 178.6875 139.699219 178.6875 Z M 139.699219 178.6875 " fill-opacity="1" fill-rule="nonzero"/></g></g></g><g clip-path="url(#470b843846)"><g clip-path="url(#643f3af45d)"><g clip-path="url(#792f397b74)"><path fill="#fdfdfd" d="M 142.007812 147.75 C 139.722656 149.066406 136.59375 153.367188 135.570312 158.3125 C 134.644531 162.785156 135.015625 165.164062 136.3125 167.8125 C 137.867188 171.003906 142.132812 173.507812 147.335938 173.796875 C 152.542969 174.089844 154.332031 174.332031 158.296875 173.59375 C 162.261719 172.851562 168.003906 169.179688 165.003906 161.285156 C 165.003906 161.285156 164.902344 152.808594 160.335938 148.800781 C 158.121094 147.136719 156.675781 145.851562 152.246094 145.433594 C 147.820312 144.996094 143.824219 146.695312 142.007812 147.75 Z M 142.007812 147.75 " fill-opacity="1" fill-rule="nonzero"/></g></g></g><g clip-path="url(#2083247a25)"><g clip-path="url(#4b4072c015)"><g clip-path="url(#621257cf0a)"><path fill="#231f20" d="M 150.34375 174.230469 C 149.9375 174.207031 149.503906 174.183594 149.023438 174.15625 L 147.320312 174.0625 C 142.234375 173.777344 137.707031 171.308594 136.066406 167.921875 C 134.859375 165.421875 134.34375 163.035156 135.308594 158.25 C 136.304688 153.324219 139.441406 148.929688 141.878906 147.5 C 144.269531 146.09375 148.265625 144.730469 152.265625 145.125 C 156.5 145.527344 158.070312 146.722656 160.078125 148.230469 L 160.496094 148.542969 C 164.992188 152.503906 165.242188 160.433594 165.273438 161.207031 C 166.445312 164.304688 166.390625 167.019531 165.132812 169.285156 C 163.609375 171.988281 160.640625 173.410156 158.355469 173.835938 C 155.242188 174.433594 153.464844 174.40625 150.34375 174.230469 Z M 142.007812 147.75 L 142.140625 147.996094 C 139.800781 149.359375 136.796875 153.617188 135.832031 158.375 C 134.871094 163.039062 135.351562 165.234375 136.535156 167.707031 C 138.113281 170.921875 142.433594 173.257812 147.328125 173.53125 L 149.03125 173.628906 C 152.941406 173.847656 154.761719 173.972656 158.214844 173.324219 C 160.382812 172.914062 163.199219 171.582031 164.617188 169.039062 C 165.796875 166.914062 165.84375 164.34375 164.707031 161.390625 C 164.6875 161.367188 164.6875 161.316406 164.691406 161.292969 C 164.695312 161.222656 164.535156 152.886719 160.132812 149.003906 L 159.738281 148.71875 C 157.730469 147.210938 156.277344 146.117188 152.207031 145.722656 C 147.230469 145.179688 142.960938 147.515625 142.164062 147.976562 Z M 142.007812 147.75 " fill-opacity="1" fill-rule="nonzero"/></g></g></g><g clip-path="url(#c936f16d3d)"><g clip-path="url(#768b89d7ce)"><g clip-path="url(#816148c3f3)"><path fill="#fdfdfd" d="M 146.535156 168.746094 C 146.535156 168.746094 147.960938 169.5 148.746094 167.957031 Z M 146.535156 168.746094 " fill-opacity="1" fill-rule="nonzero"/></g></g></g><g clip-path="url(#45bd73691e)"><g clip-path="url(#1a1e6ad697)"><g clip-path="url(#56ffbd223e)"><path fill="#231f20" d="M 147.234375 169.195312 C 146.777344 169.167969 146.453125 168.984375 146.425781 168.980469 C 146.289062 168.902344 146.246094 168.753906 146.304688 168.613281 C 146.382812 168.472656 146.53125 168.410156 146.671875 168.488281 C 146.671875 168.488281 147.1875 168.757812 147.699219 168.597656 C 148.019531 168.492188 148.296875 168.246094 148.511719 167.824219 C 148.570312 167.683594 148.742188 167.621094 148.882812 167.699219 C 149.023438 167.78125 149.0625 167.925781 149.003906 168.066406 C 148.734375 168.605469 148.355469 168.945312 147.863281 169.109375 C 147.644531 169.195312 147.425781 169.207031 147.234375 169.195312 Z M 147.234375 169.195312 " fill-opacity="1" fill-rule="nonzero"/></g></g></g><g clip-path="url(#9094b4ebb2)"><g clip-path="url(#a80cc6db84)"><g clip-path="url(#c392ec073a)"><path fill="#fdfdfd" d="M 150.128906 171.667969 C 150.128906 171.667969 148.457031 171.429688 147.878906 168.824219 Z M 150.128906 171.667969 " fill-opacity="1" fill-rule="nonzero"/><path fill="#231f20" d="M 150.109375 171.957031 C 150.085938 171.953125 150.085938 171.953125 150.109375 171.957031 C 150.015625 171.949219 148.226562 171.65625 147.609375 168.902344 C 147.570312 168.757812 147.675781 168.617188 147.820312 168.578125 C 147.992188 168.5625 148.105469 168.644531 148.148438 168.789062 C 148.664062 171.152344 150.09375 171.402344 150.164062 171.429688 C 150.308594 171.460938 150.421875 171.585938 150.386719 171.730469 C 150.382812 171.851562 150.253906 171.964844 150.109375 171.957031 Z M 150.109375 171.957031 " fill-opacity="1" fill-rule="nonzero"/></g></g></g><g clip-path="url(#e47d1c6bee)"><g clip-path="url(#0ddb63261a)"><g clip-path="url(#140c8eaac0)"><path fill="#231f20" d="M 150.9375 161.050781 C 150.929688 161.226562 150.886719 161.394531 150.808594 161.550781 C 150.734375 161.710938 150.628906 161.847656 150.5 161.964844 C 150.371094 162.082031 150.222656 162.167969 150.054688 162.226562 C 149.890625 162.285156 149.71875 162.308594 149.546875 162.296875 C 149.371094 162.289062 149.203125 162.246094 149.046875 162.167969 C 148.886719 162.09375 148.75 161.988281 148.632812 161.859375 C 148.515625 161.726562 148.429688 161.582031 148.371094 161.414062 C 148.3125 161.25 148.289062 161.078125 148.300781 160.90625 C 148.308594 160.730469 148.351562 160.5625 148.429688 160.40625 C 148.503906 160.246094 148.609375 160.109375 148.738281 159.992188 C 148.867188 159.875 149.015625 159.789062 149.183594 159.730469 C 149.347656 159.671875 149.519531 159.648438 149.691406 159.660156 C 149.867188 159.667969 150.035156 159.710938 150.191406 159.789062 C 150.351562 159.863281 150.488281 159.96875 150.605469 160.097656 C 150.722656 160.226562 150.808594 160.375 150.867188 160.542969 C 150.925781 160.707031 150.949219 160.878906 150.9375 161.050781 Z M 150.9375 161.050781 " fill-opacity="1" fill-rule="nonzero"/></g></g></g><g clip-path="url(#3c7b356286)"><g clip-path="url(#50e4616a8b)"><g clip-path="url(#f78dcf8e57)"><path fill="#231f20" d="M 164.398438 161.804688 C 164.386719 161.980469 164.34375 162.148438 164.269531 162.304688 C 164.191406 162.464844 164.089844 162.601562 163.957031 162.71875 C 163.828125 162.835938 163.679688 162.921875 163.515625 162.980469 C 163.347656 163.039062 163.179688 163.0625 163.003906 163.050781 C 162.828125 163.042969 162.660156 163 162.503906 162.921875 C 162.347656 162.847656 162.207031 162.742188 162.09375 162.613281 C 161.976562 162.480469 161.886719 162.335938 161.832031 162.167969 C 161.773438 162.003906 161.75 161.832031 161.757812 161.660156 C 161.769531 161.484375 161.8125 161.316406 161.886719 161.160156 C 161.960938 161 162.066406 160.863281 162.195312 160.746094 C 162.328125 160.628906 162.476562 160.542969 162.640625 160.484375 C 162.804688 160.425781 162.976562 160.402344 163.152344 160.414062 C 163.328125 160.421875 163.492188 160.464844 163.652344 160.542969 C 163.808594 160.617188 163.945312 160.722656 164.0625 160.851562 C 164.179688 160.980469 164.265625 161.128906 164.324219 161.296875 C 164.382812 161.460938 164.40625 161.632812 164.398438 161.804688 Z M 164.398438 161.804688 " fill-opacity="1" fill-rule="nonzero"/></g></g></g><g clip-path="url(#bf3fdaeae0)"><g clip-path="url(#a2d89f65cc)"><g clip-path="url(#87f18c2b74)"><path fill="#fdfdfd" d="M 145.324219 147.40625 C 145.324219 147.40625 145.097656 145.902344 144.320312 144.726562 C 143.277344 143.152344 141.398438 141.914062 139.386719 143.054688 C 136.800781 144.523438 137.402344 147.082031 138.507812 148.804688 C 139.242188 149.929688 140.332031 150.617188 140.332031 150.617188 Z M 145.324219 147.40625 " fill-opacity="1" fill-rule="nonzero"/><path fill="#231f20" d="M 140.316406 150.902344 C 140.269531 150.902344 140.222656 150.898438 140.175781 150.871094 C 140.128906 150.84375 139.011719 150.132812 138.261719 148.960938 C 137.417969 147.636719 137.089844 146.222656 137.367188 145.105469 C 137.613281 144.15625 138.234375 143.398438 139.230469 142.828125 C 141.441406 141.582031 143.457031 142.992188 144.519531 144.59375 C 145.34375 145.816406 145.570312 147.324219 145.566406 147.394531 C 145.582031 147.539062 145.480469 147.679688 145.332031 147.71875 C 145.1875 147.734375 145.046875 147.628906 145.007812 147.484375 C 145.011719 147.460938 144.777344 146.027344 144.046875 144.902344 C 143.09375 143.40625 141.378906 142.226562 139.515625 143.277344 C 138.648438 143.757812 138.105469 144.425781 137.917969 145.210938 C 137.667969 146.207031 137.960938 147.449219 138.734375 148.648438 C 139.421875 149.722656 140.464844 150.382812 140.492188 150.382812 C 140.628906 150.464844 140.667969 150.632812 140.589844 150.773438 C 140.511719 150.867188 140.414062 150.910156 140.316406 150.902344 Z M 140.316406 150.902344 " fill-opacity="1" fill-rule="nonzero"/></g></g></g><g clip-path="url(#2d1057ad1a)"><g clip-path="url(#e0b66e2108)"><g clip-path="url(#88a50c6b0c)"><path fill="#fdfdfd" d="M 140.839844 145.445312 C 140.839844 145.445312 142.070312 146.261719 142.464844 147.773438 Z M 140.839844 145.445312 " fill-opacity="1" fill-rule="nonzero"/></g></g></g><g clip-path="url(#f6485b16b7)"><g clip-path="url(#ec95547640)"><g clip-path="url(#e3528b2b5d)"><path fill="#231f20" d="M 142.425781 148.039062 C 142.308594 148.03125 142.214844 147.953125 142.171875 147.832031 C 141.816406 146.4375 140.683594 145.652344 140.683594 145.652344 C 140.542969 145.574219 140.527344 145.402344 140.609375 145.265625 C 140.6875 145.148438 140.859375 145.109375 140.996094 145.191406 C 141.042969 145.214844 142.320312 146.082031 142.734375 147.695312 C 142.773438 147.839844 142.695312 147.980469 142.523438 148.019531 C 142.5 148.042969 142.476562 148.039062 142.425781 148.039062 Z M 142.425781 148.039062 " fill-opacity="1" fill-rule="nonzero"/></g></g></g><g clip-path="url(#fbacefb068)"><g clip-path="url(#87fb27cfd9)"><g clip-path="url(#835f2c3408)"><path fill="#231f20" d="M 163.609375 163.855469 C 163.550781 164.910156 162.257812 166.066406 160.746094 165.980469 C 159.234375 165.898438 158.078125 164.605469 158.136719 163.550781 C 158.199219 162.492188 159.449219 162.058594 160.960938 162.144531 C 162.472656 162.25 163.667969 162.800781 163.609375 163.855469 Z M 163.609375 163.855469 " fill-opacity="1" fill-rule="nonzero"/></g></g></g><g clip-path="url(#8893d29119)"><g clip-path="url(#56ba0685e9)"><g clip-path="url(#d74ff06482)"><path fill="#231f20" d="M 160.957031 171.671875 C 160.8125 171.664062 160.699219 171.539062 160.707031 171.394531 L 161.011719 165.949219 C 161.019531 165.804688 161.148438 165.691406 161.289062 165.699219 C 161.433594 165.707031 161.546875 165.835938 161.539062 165.976562 L 161.234375 171.398438 C 161.25 171.570312 161.101562 171.679688 160.957031 171.671875 Z M 160.957031 171.671875 " fill-opacity="1" fill-rule="nonzero"/></g></g></g><g clip-path="url(#680ddee636)"><g clip-path="url(#16f233cafa)"><g clip-path="url(#c3459dc78c)"><path fill="#fdfdfd" d="M 170.355469 176.601562 C 170.695312 176.09375 170.929688 174.519531 171.082031 173.925781 Z M 170.355469 176.601562 " fill-opacity="1" fill-rule="nonzero"/><path fill="#231f20" d="M 170.339844 176.867188 C 170.292969 176.863281 170.246094 176.835938 170.199219 176.8125 C 170.082031 176.730469 170.042969 176.5625 170.125 176.421875 C 170.359375 176.074219 170.558594 175.097656 170.667969 174.429688 C 170.707031 174.191406 170.765625 173.980469 170.796875 173.835938 C 170.832031 173.695312 170.980469 173.605469 171.121094 173.636719 C 171.265625 173.671875 171.351562 173.820312 171.320312 173.960938 C 171.289062 174.105469 171.253906 174.320312 171.191406 174.53125 C 171.027344 175.316406 170.851562 176.292969 170.566406 176.710938 C 170.535156 176.828125 170.433594 176.871094 170.339844 176.867188 Z M 170.339844 176.867188 " fill-opacity="1" fill-rule="nonzero"/></g></g></g><g clip-path="url(#d200196c89)"><path fill="#ffffff" d="M 229.101562 165.21875 L 240.582031 165.21875 L 240.582031 176.699219 L 229.101562 176.699219 Z M 229.101562 165.21875 " fill-opacity="1" fill-rule="nonzero"/><path fill="#ffffff" d="M 229.0625 165.179688 L 229.0625 176.734375 L 240.617188 176.734375 L 240.617188 165.179688 Z M 240.546875 176.664062 L 229.136719 176.664062 L 229.136719 165.253906 L 240.546875 165.253906 Z M 240.546875 176.664062 " fill-opacity="1" fill-rule="nonzero"/></g><g clip-path="url(#ef2193a6c6)"><path fill="#e60000" d="M 231.175781 161.96875 C 229.222656 161.96875 227.636719 163.492188 227.636719 165.371094 C 227.636719 169.1875 231.648438 170.191406 234.378906 173.96875 C 236.964844 170.214844 241.125 169.066406 241.125 165.371094 C 241.125 163.492188 239.539062 161.96875 237.582031 161.96875 C 236.164062 161.96875 234.945312 162.773438 234.378906 163.929688 C 233.8125 162.773438 232.59375 161.96875 231.175781 161.96875 Z M 231.175781 161.96875 " fill-opacity="1" fill-rule="nonzero"/></g></svg>